<svg xmlns="http://www.w3.org/2000/svg" xmlns:xlink="http://www.w3.org/1999/xlink" viewBox="0,0,256,256" width="50px" height="50px" fill-rule="nonzero"><g fill="#ffffff" fill-rule="nonzero" stroke="none" stroke-width="1" stroke-linecap="butt" stroke-linejoin="miter" stroke-miterlimit="10" stroke-dasharray="" stroke-dashoffset="0" font-family="none" font-weight="none" font-size="none" text-anchor="none" style="mix-blend-mode: normal"><g transform="scale(5.12,5.12)"><path d="M25,2c-12.6907,0 -23,10.3093 -23,23c0,12.69071 10.3093,23 23,23c12.69071,0 23,-10.30929 23,-23c0,-12.6907 -10.30929,-23 -23,-23zM25,4c11.60983,0 21,9.39017 21,21c0,11.60983 -9.39017,21 -21,21c-2.12364,0 -4.17229,-0.31786 -6.10352,-0.90234c0.86025,-1.43824 1.97086,-3.49407 2.41211,-5.19141c0.26213,-1.00636 1.33984,-5.11133 1.33984,-5.11133c0.7004,1.33714 2.74684,2.46875 4.92578,2.46875c6.4839,0 11.1582,-5.96299 11.1582,-13.37305c0,-7.1041 -5.79701,-12.41797 -13.25586,-12.41797c-9.27973,0 -14.20508,6.22817 -14.20508,13.00977c0,3.15388 1.67744,7.07977 4.36328,8.33008c0.40684,0.18937 0.62531,0.10733 0.71875,-0.28711c0.07194,-0.29935 0.43475,-1.7586 0.59766,-2.4375c0.0521,-0.21665 0.02687,-0.40384 -0.14844,-0.61719c-0.88894,-1.0783 -1.60156,-3.0589 -1.60156,-4.90625c0,-4.74241 3.59028,-9.33203 9.70703,-9.33203c5.28156,0 8.98047,3.60045 8.98047,8.74805c0,5.81575 -2.9366,9.8457 -6.75781,9.8457c-2.11031,0 -3.6905,-1.74581 -3.18359,-3.88672c0.60779,-2.55519 1.78125,-5.31251 1.78125,-7.1582c0,-1.65054 -0.88576,-3.02734 -2.7207,-3.02734c-2.15744,0 -3.89062,2.23055 -3.89062,5.2207c0,1.90275 0.64453,3.19141 0.64453,3.19141c0,0 -2.13118,9.0105 -2.52148,10.6875c-0.39114,1.67579 -0.28638,3.93285 -0.125,5.61328c-7.6941,-3.11433 -13.11523,-10.64747 -13.11523,-19.4668c0,-11.60982 9.39017,-21 21,-21z"></path></g></g></svg>